<svg width="68" height="70" viewBox="0 0 68 70" fill="none" xmlns="http://www.w3.org/2000/svg">
<path fill-rule="evenodd" clip-rule="evenodd" d="M0 35.0906C0 52.4411 12.179 66.8673 28.1054 69.7916V44.589H19.6738V34.8958H28.1054V27.1411C28.1054 18.4172 33.539 13.5706 41.2214 13.5706C43.657 13.5706 46.2803 13.9583 48.7159 14.346V23.2638H44.4065C40.2843 23.2638 39.3476 25.3963 39.3476 28.1105V34.8958H48.3413L46.8424 44.589H39.3476V69.7916C55.2741 66.8673 67.453 52.4411 67.453 35.0906C67.453 15.7908 52.276 0 33.7265 0C15.1769 0 0 15.7908 0 35.0906H0Z" fill="#1580EB"/>
</svg>
