<svg width="40" height="30" viewBox="0 0 40 30" fill="none" xmlns="http://www.w3.org/2000/svg">
<path fill-rule="evenodd" clip-rule="evenodd" d="M37.6858 25.0272C38.7628 25.0272 39.6358 25.9419 39.6358 27.0702C39.6358 28.1985 38.7628 29.1131 37.6858 29.1131H2.58583C1.50888 29.1131 0.635834 28.1985 0.635834 27.0702C0.635834 25.9419 1.50888 25.0272 2.58583 25.0272H37.6858ZM37.6858 12.7695C38.7628 12.7695 39.6358 13.6841 39.6358 14.8124C39.6358 15.9407 38.7628 16.8554 37.6858 16.8554H2.58583C1.50888 16.8554 0.635834 15.9407 0.635834 14.8124C0.635834 13.6841 1.50888 12.7695 2.58583 12.7695H37.6858ZM37.6858 0.511719C38.7628 0.511719 39.6358 1.42638 39.6358 2.55468C39.6358 3.68297 38.7628 4.59763 37.6858 4.59763H2.58583C1.50888 4.59763 0.635834 3.68297 0.635834 2.55468C0.635834 1.42638 1.50888 0.511719 2.58583 0.511719H37.6858Z" fill="white"/>
</svg>
