<svg width="68" height="70" viewBox="0 0 68 70" fill="none" xmlns="http://www.w3.org/2000/svg">
<path d="M47.9682 24.1762C47.6755 23.392 47.2274 22.6799 46.6525 22.0857C46.0777 21.4916 45.389 21.0286 44.6307 20.7266C43.5866 20.3265 42.4838 20.115 41.3705 20.1014C39.519 20.0142 38.9639 19.9924 34.2739 19.9924C29.5838 19.9924 29.0287 20.0142 27.1772 20.1014C26.0627 20.1146 24.9587 20.3261 23.9135 20.7266C23.1555 21.0294 22.4673 21.4932 21.893 22.0879C21.3188 22.6827 20.8714 23.3953 20.5795 24.1799C20.1928 25.2602 19.9884 26.4012 19.9752 27.5531C19.8909 29.4688 19.8698 30.0431 19.8698 34.8958C19.8698 39.7485 19.8909 40.3228 19.9752 42.2384C19.988 43.3916 20.1924 44.5339 20.5795 45.6153C20.8722 46.3996 21.3203 47.1117 21.8952 47.7058C22.47 48.3 23.1587 48.763 23.917 49.0649C24.9611 49.465 26.0639 49.6765 27.1772 49.6901C29.0287 49.7774 29.5838 49.7956 34.2739 49.7956C38.9639 49.7956 39.519 49.7774 41.3705 49.6865C42.4848 49.6745 43.5888 49.4642 44.6342 49.0649C45.3922 48.7621 46.0804 48.2984 46.6547 47.7036C47.2289 47.1089 47.6763 46.3963 47.9682 45.6117C48.3549 44.5314 48.5593 43.3904 48.5725 42.2384C48.6568 40.3228 48.6744 39.7485 48.6744 34.8958C48.6744 30.0431 48.6568 29.4688 48.569 27.5531C48.5573 26.4002 48.3541 25.2579 47.9682 24.1762ZM34.2739 44.2304C32.4895 44.2304 30.7452 43.6829 29.2616 42.6572C27.778 41.6315 26.6216 40.1737 25.9388 38.468C25.2559 36.7623 25.0773 34.8854 25.4254 33.0747C25.7735 31.2639 26.6327 29.6007 27.8945 28.2952C29.1562 26.9897 30.7637 26.1007 32.5138 25.7405C34.2638 25.3803 36.0778 25.5652 37.7264 26.2717C39.3749 26.9782 40.7839 28.1747 41.7752 29.7097C42.7666 31.2448 43.2957 33.0496 43.2957 34.8958C43.2957 37.3715 42.3452 39.7458 40.6533 41.4964C38.9613 43.2469 36.6666 44.2304 34.2739 44.2304ZM43.6505 27.375C43.2336 27.375 42.8261 27.2471 42.4794 27.0075C42.1328 26.7678 41.8626 26.4272 41.7031 26.0287C41.5435 25.6301 41.5018 25.1916 41.5831 24.7685C41.6644 24.3455 41.8652 23.9569 42.16 23.6518C42.4548 23.3468 42.8304 23.1391 43.2393 23.055C43.6482 22.9708 44.072 23.014 44.4572 23.1791C44.8423 23.3441 45.1716 23.6237 45.4032 23.9823C45.6348 24.341 45.7584 24.7627 45.7584 25.194C45.7584 25.7725 45.5363 26.3272 45.141 26.7362C44.7457 27.1452 44.2096 27.375 43.6505 27.375ZM40.1303 34.8958C40.1303 36.0942 39.7868 37.2658 39.1433 38.2623C38.4998 39.2587 37.5852 40.0354 36.515 40.494C35.4449 40.9527 34.2674 41.0727 33.1313 40.8389C31.9953 40.6051 30.9518 40.0279 30.1327 39.1805C29.3137 38.3331 28.7559 37.2534 28.5299 36.0779C28.3039 34.9025 28.4199 33.6841 28.8632 32.5769C29.3064 31.4697 30.0571 30.5233 31.0202 29.8575C31.9833 29.1917 33.1156 28.8363 34.2739 28.8363C35.8271 28.8363 37.3167 29.4747 38.415 30.6111C39.5133 31.7474 40.1303 33.2887 40.1303 34.8958ZM34.2739 0C27.6034 0 21.0827 2.0466 15.5364 5.881C9.99014 9.7154 5.66733 15.1654 3.11465 21.5417C0.561976 27.9181 -0.10592 34.9345 1.19542 41.7036C2.49677 48.4727 5.7089 54.6906 10.4256 59.5708C15.1424 64.4511 21.1518 67.7746 27.6941 69.1211C34.2364 70.4675 41.0177 69.7765 47.1804 67.1353C53.3431 64.4941 58.6105 60.0214 62.3164 54.2828C66.0223 48.5443 68.0003 41.7975 68.0003 34.8958C68.0003 25.6408 64.447 16.765 58.1221 10.2207C51.7971 3.67651 43.2187 0 34.2739 0V0ZM51.7343 42.3875C51.7046 43.8957 51.4278 45.3879 50.9158 46.8003C50.4646 48.0074 49.7746 49.1037 48.8902 50.0188C48.0057 50.934 46.9461 51.6479 45.7795 52.1147C44.4155 52.6441 42.9746 52.9304 41.518 52.9616C39.642 53.0489 39.0447 53.0707 34.2739 53.0707C29.503 53.0707 28.9057 53.0489 27.0297 52.9616C25.5731 52.9304 24.1323 52.6441 22.7682 52.1147C21.6016 51.6479 20.542 50.934 19.6575 50.0188C18.7731 49.1037 18.0831 48.0074 17.6319 46.8003C17.1203 45.389 16.8435 43.8981 16.8134 42.3911C16.7291 40.45 16.708 39.8321 16.708 34.8958C16.708 29.9595 16.7291 29.3415 16.8134 27.4005C16.8424 25.8936 17.118 24.4028 17.6284 22.9912C18.0796 21.7831 18.7699 20.6859 19.655 19.7701C20.5401 18.8543 21.6006 18.1401 22.7682 17.6733C24.1325 17.1451 25.5734 16.86 27.0297 16.8299C28.9057 16.7427 29.503 16.7209 34.2739 16.7209C39.0447 16.7209 39.642 16.7427 41.518 16.8299C42.9744 16.86 44.4152 17.1451 45.7795 17.6733C46.9465 18.1405 48.0062 18.8549 48.8907 19.7707C49.7752 20.6865 50.465 21.7835 50.9158 22.9912C51.4274 24.4026 51.7042 25.8934 51.7343 27.4005C51.8186 29.3415 51.8397 29.9595 51.8397 34.8958C51.8397 39.8321 51.8186 40.45 51.7343 42.3911V42.3875Z" fill="#1580EB"/>
</svg>
