<svg width="70" height="70" viewBox="0 0 70 70" fill="none" xmlns="http://www.w3.org/2000/svg">
<path d="M41.5625 61.25H28.4375C27.2776 61.2487 26.1656 60.7873 25.3454 59.9671C24.5252 59.1469 24.0638 58.0349 24.0625 56.875V45.9375H13.125C11.9651 45.9362 10.8531 45.4748 10.0329 44.6546C9.2127 43.8344 8.75133 42.7224 8.75 41.5625V28.4375C8.75116 27.2775 9.21247 26.1654 10.0327 25.3452C10.8529 24.525 11.965 24.0637 13.125 24.0625H24.0625V13.125C24.0637 11.965 24.525 10.8529 25.3452 10.0327C26.1654 9.21247 27.2775 8.75116 28.4375 8.75H41.5625C42.7224 8.75133 43.8344 9.2127 44.6546 10.0329C45.4748 10.8531 45.9362 11.9651 45.9375 13.125V24.0625H56.875C58.0349 24.0638 59.1469 24.5252 59.9671 25.3454C60.7873 26.1656 61.2487 27.2776 61.25 28.4375V41.5625C61.2484 42.7223 60.787 43.8342 59.9669 44.6544C59.1467 45.4745 58.0348 45.9359 56.875 45.9375H45.9375V56.875C45.9359 58.0348 45.4745 59.1467 44.6544 59.9669C43.8342 60.787 42.7223 61.2484 41.5625 61.25ZM13.125 28.4375V41.5625H28.4375V56.875H41.5625V41.5625H56.875V28.4375H41.5625V13.125H28.4375V28.4375H13.125Z" fill="white"/>
</svg>
