<?xml version="1.0" standalone="no"?>
<!DOCTYPE svg PUBLIC "-//W3C//DTD SVG 20010904//EN"
 "http://www.w3.org/TR/2001/REC-SVG-20010904/DTD/svg10.dtd">
<svg version="1.0" xmlns="http://www.w3.org/2000/svg"
 width="800.000000pt" height="800.000000pt" viewBox="0 0 800.000000 800.000000"
 preserveAspectRatio="xMidYMid meet">
<metadata>
Created by potrace 1.14, written by Peter Selinger 2001-2017
</metadata>
<g transform="translate(0.000000,800.000000) scale(0.100000,-0.100000)"
fill="#000000" stroke="none">
<path d="M1010 5339 l0 -230 179 7 179 7 7 -59 c22 -189 23 -193 813 -2584
l378 -1145 261 -3 261 -2 16 47 c92 283 700 2304 736 2448 45 180 100 453 100
498 0 55 22 -19 75 -248 31 -137 73 -304 92 -370 37 -130 760 -2329 775 -2357
8 -17 30 -18 276 -16 147 1 236 4 199 5 -57 3 -68 7 -63 19 3 9 6 20 6 25 0 5
6 9 14 9 8 0 18 5 22 12 4 6 3 8 -4 4 -6 -3 -13 -2 -17 4 -6 10 1 12 43 13 12
0 20 2 17 5 -2 3 0 11 6 18 8 10 5 11 -13 7 -22 -6 -22 -5 4 16 14 11 33 21
42 21 9 0 16 7 16 15 0 13 16 19 40 17 6 -1 445 1421 766 2478 181 595 199
650 257 765 89 179 182 282 312 346 53 26 108 45 154 52 l71 11 0 198 0 198
-675 0 -675 0 0 -231 0 -230 227 7 c193 6 225 5 218 -7 -5 -8 -24 -35 -42 -60
-89 -124 -126 -239 -358 -1109 -294 -1101 -389 -1442 -397 -1422 -4 9 -28 109
-53 222 -70 313 -95 405 -219 805 -339 1101 -414 1341 -481 1555 -40 129 -90
288 -110 353 l-36 117 -272 0 -272 0 -43 -148 c-61 -209 -285 -949 -404 -1332
-55 -179 -135 -451 -178 -605 -140 -506 -270 -968 -274 -972 -1 -2 -15 59 -30
134 -41 210 -95 426 -330 1316 -119 450 -221 848 -227 884 -12 70 -6 151 16
192 40 78 163 131 305 131 l60 0 0 200 0 200 -885 0 -885 0 0 -231z"/>
<path d="M5455 1500 c3 -5 8 -10 11 -10 2 0 4 5 4 10 0 6 -5 10 -11 10 -5 0
-7 -4 -4 -10z"/>
</g>
</svg>
